<svg version="1.0" xmlns="http://www.w3.org/2000/svg" width="170.667" height="170.667" viewBox="0 0 128 128"><path d="M53.1 1.1C29.5 5.7 10.7 22 3.4 44.3 1 51.3.6 54.1.7 64c0 9.7.4 12.8 2.6 19.5 6.5 20 22.3 35.3 42.7 41.7 9.7 3 25.4 3.1 34.5.4 28.7-8.8 46.9-32.6 46.9-61.1-.1-12-2-20-7.6-30.7C107.6 10.3 78.7-3.9 53.1 1.1zm24.4 5.4c10.7 2.7 20.2 8.1 28 15.9 8.1 8.2 12.7 16.2 15.5 27.2 5.3 20.5-.3 40.9-15.4 55.8-8 8-15.7 12.5-26.6 15.5-26.8 7.4-55.8-5.8-67.8-30.9C6.5 80.1 5 73.7 5 63.7 5.1 37 23.6 13.5 50 6.6c7.3-1.9 20.1-2 27.5-.1z"/><path d="M56.8 9.2c-21.9 2.6-40.7 19.1-46.2 40.4-2 7.9-2 20.9 0 28.8 4.7 18.2 20.6 34.2 39 39.1 7.6 2 21.2 2 28.8 0 18.4-4.9 34.3-20.9 39-39.1.9-3.4 1.6-9.9 1.6-14.4 0-15.7-5.1-28.1-16-39.1C90.7 12.6 74.5 7.1 56.8 9.2zm10.4 17.5c2.4 2.1 2.3 6.5-.2 8.8-1.6 1.5-2 3.1-2 8.7 0 6 .2 6.8 1.9 6.8 1.1 0 3.4 1.2 5.1 2.7 3.1 2.5 3.3 2.6 5.8 1 1.5-.8 2.8-2.6 3-3.9.9-6.6 11.2-5.9 11.2.8 0 3.7-2.8 5.7-7.1 5.1-5.7-.8-7.2.8-7.3 8.2l-.2 6.1 5.4 3.1c4 2.2 6.1 2.9 8.2 2.4 1.6-.4 3.8-.2 4.9.4 4.1 2.2 3.8 8.5-.6 10.2-3.2 1.2-6.1-.4-7.8-4.4-.9-2.2-3.1-4.2-6.8-6.4-5.4-3-5.6-3.1-7.2-1.2-1 1-3.3 2.3-5.1 2.9-3.3 1.1-3.4 1.3-3.4 6.9 0 4.4.4 6 2 7.4 2.2 1.9 2.7 6.6.8 8.5-2 2-7.6 1.5-8.8-.7-1.5-3-1.2-5.6 1-7.6 1.6-1.4 2-3.1 2-7.6 0-5.4-.2-5.8-2.9-6.7-1.6-.6-3.8-1.9-4.9-3-2-2-2-1.9-9.4 2.4-6.2 3.5-7.6 4.9-8.1 7.3-.5 2.1-1.4 3.2-3.1 3.7-5.7 1.4-9.1-2.9-6.7-8.3 1.1-2.3 1.6-2.5 5.3-2 3.6.5 5.1 0 11-3.5l6.8-4v-6.2c0-5.7-.2-6.2-2.9-7.7-2-1.2-3.3-1.4-4.5-.7-2.4 1.4-6.3.2-7.6-2.2-1.5-2.7-.4-5.7 2.6-7.7 3.4-2.2 7.2-.5 8.1 3.7.4 2.1 1.6 3.6 3.5 4.6 2.8 1.5 3.2 1.4 5.2-.4 1.1-1.1 3.3-2.4 4.9-2.7 2.6-.7 2.7-.9 2.7-7.6 0-5.6-.4-7.3-2-8.9-2.7-2.7-2.6-6.5.2-8.4 2.9-2 4.7-2 7 .1z"/><path d="M62 29.6c-1 1.1-1 1.7 0 2.8 1.5 1.9 4 1 4-1.4s-2.5-3.3-4-1.4zM38 50.9c0 2.7 1.9 3.6 3.7 1.8 1.8-1.8.9-3.7-1.8-3.7-1.2 0-1.9.7-1.9 1.9zM84.4 50.5c-.4.9-.2 2.1.4 2.7 1.5 1.5 4.4.1 4-1.9-.4-2.3-3.6-2.9-4.4-.8zM58.1 55.4c-5.5 3.1-6.8 11.4-2.5 16.5 7.3 8.8 21.8 1 18.5-10-2.1-6.9-9.7-10-16-6.5zM91.7 79.7c-1.5 1.4-.7 4.3 1.2 4.3 2.6 0 3.6-1.7 2.1-3.5-1.4-1.6-2.3-1.9-3.3-.8zM29.4 82.5c-.4.9-.2 2.1.4 2.7 1.5 1.5 4.4.1 4-1.9-.4-2.3-3.6-2.9-4.4-.8zM61.4 95.4c-.8 2.1.3 3.6 2.7 3.6 1.5 0 2-.6 1.7-2.2-.4-2.7-3.5-3.7-4.4-1.4z"/></svg>