<svg xmlns="http://www.w3.org/2000/svg" viewBox="0 0 480.167 480.167"><path d="M266.083 240.123c8.837-9.88 7.991-25.052-1.888-33.889a24 24 0 00-15.984-6.111v-8h-16v8h-16a8 8 0 00-8 8v64a8 8 0 008 8h16v8h16v-8c13.255-.009 23.993-10.762 23.983-24.017a23.992 23.992 0 00-6.111-15.983zm-17.871 24h-24v-16h24a8 8 0 010 16zm0-32h-24v-16h24a8 8 0 010 16z"/><path d="M479.553 249.944a31.936 31.936 0 00-23.95-24.87v-.008l-5.664-62.336c14.695-9.818 18.649-29.69 8.831-44.385a31.998 31.998 0 00-26.559-14.223 31.609 31.609 0 00-15.744 4.312L263.58 38.371c3.523-17.273-7.624-34.132-24.898-37.655-17.273-3.523-34.132 7.625-37.655 24.898a31.96 31.96 0 00-.52 3.565L83.259 70.563a31.68 31.68 0 00-19.048-6.44c-17.673.046-31.962 14.411-31.916 32.084a31.998 31.998 0 0014.38 26.628L27.347 264.619C9.9 267.147-2.194 283.339.333 300.786S19.053 330.327 36.5 327.8c.54-.078 1.079-.17 1.615-.276l35.248 82.264c-12.387 12.556-12.249 32.777.307 45.163 12.556 12.387 32.777 12.249 45.163-.307a31.95 31.95 0 004.482-5.72l85.704 6.12c3.78 17.205 20.792 28.089 37.997 24.309 13.935-3.061 24.142-15.004 24.995-29.245l114.536-30.136c6.52 16.427 25.122 24.457 41.548 17.938s24.457-25.122 17.938-41.548a32.001 32.001 0 00-17.63-17.814l26.024-91.072c17.302-3.427 28.552-20.23 25.126-37.532zm-47.342-129.821c8.837 0 16 7.163 16 16s-7.163 16-16 16-16-7.163-16-16 7.164-16 16-16zM185.38 181.987l-37.512-29.184 30.312-39.528 52 4.8 3.256 42.36a79.6 79.6 0 00-48.056 21.552zm54.832-5.864c35.346 0 64 28.654 64 64 0 35.346-28.654 64-64 64-35.33-.04-63.96-28.67-64-64 0-35.347 28.653-64 64-64zm-65.329 17.984a79.444 79.444 0 00-14.672 45.584L55.683 274.523c-.208-.224-.368-.48-.576-.696l83.04-108.312 36.736 28.592zM63.308 288.859l98.504-32.8a79.667 79.667 0 0017.552 35.904L131.5 355.779l-68.688-50.808a31.461 31.461 0 001.4-8.848 32.034 32.034 0 00-.904-7.264zm127.68 14.24c29.708 23.387 71.768 22.651 100.64-1.76l14.016 13.144-137.2 68.6-24.096-17.808 46.64-62.176zm111.8-13.272a79.547 79.547 0 0017.032-42.024l36.696 2.928-34.536 55.56-1.056.536-18.136-17zm71.664-37.648l41.808 3.344c0 .208-.064.4-.064.608.016.984.224 1.928.312 2.896l-67.2 33.6 25.144-40.448zm9.552-15.272l43.064-69.272c1.699.299 3.419.462 5.144.488.728 0 1.408-.168 2.128-.216l5.264 57.552a31.921 31.921 0 00-18.744 14.4l-36.856-2.952zm28.303-75.928l-46.28 74.464-46.264-3.704a79.205 79.205 0 00-8.08-27.352l94.528-49.752a31.904 31.904 0 006.096 6.344zm-11.752-21.448h.008l-97.472 51.304a79.885 79.885 0 00-53.6-30.128l-3.2-41.096 154.088 14.336c-.056.728-.224 1.432-.224 2.176.073 1.142.206 2.28.4 3.408zM256.451 52.723l141.736 64.936-153.08-14.24-3.2-40.976a31.786 31.786 0 0014.544-9.72zm-24.239-36.6c8.837 0 16 7.163 16 16s-7.163 16-16 16-16-7.163-16-16 7.163-16 16-16zM218.38 60.867a31.147 31.147 0 007.608 2.624l-.04.032 2.952 38.4-39.2-3.648 28.68-37.408zm-15.288-15.632a31.508 31.508 0 003.048 5.32l-35.28 45.992-75.392-7.008a31.784 31.784 0 00-1.768-5.672l109.392-38.632zm-108.48 60.264l64.752 6.024-24.112 31.496-42.4-32.952a32.194 32.194 0 001.76-4.568zm-30.4-25.376c8.837 0 16 7.163 16 16s-7.163 16-16 16-16-7.163-16-16 7.163-16 16-16zm-2.081 47.768c.704.064 1.368.232 2.08.232a31.755 31.755 0 0018.328-5.84l42.976 33.424-81.712 106.584 18.328-134.4zM32.212 312.123c-8.837 0-16-7.163-16-16s7.163-16 16-16 16 7.163 16 16-7.164 16-16 16zm20.343 8.496c.712-.592 1.48-1.112 2.136-1.768l67.2 49.68-23.831 31.776c-.632 0-1.224-.184-1.864-.184a31.413 31.413 0 00-8.968 1.44l-34.673-80.944zm43.657 127.504c-8.837 0-16-7.163-16-16s7.163-16 16-16 16 7.163 16 16-7.164 16-16 16zm21.367-39.608a31.608 31.608 0 00-3.496-2.88l20.688-27.592 17.6 13.032-34.792 17.44zm92.129 30.528l-81.6-5.824c0-.384.112-.736.112-1.12a31.448 31.448 0 00-1.816-10.128l40.44-20.248 44.464 32.864a31.709 31.709 0 00-1.6 4.456zm30.504 25.08c-8.837 0-16-7.163-16-16s7.163-16 16-16 16 7.163 16 16-7.164 16-16 16zm12-45.6a31.504 31.504 0 00-30.712 3.76v.016l-38.608-28.576 122.92-61.472-53.6 86.272zm132.423-14.568l-.016.032-115.608 30.392a31.934 31.934 0 00-3.944-6.184l59.632-95.92 63.936 59.944a31.512 31.512 0 00-4 11.736zm47.576 4.168c0 8.837-7.163 16-16 16s-16-7.163-16-16 7.163-16 16-16 16 7.163 16 16zm-19.856-31.576a31.643 31.643 0 00-12.536 4.24l-66.456-62.264 88.512-44.256a32 32 0 0016.24 12.104l-25.76 90.176zm35.856-104.424c-8.837 0-16-7.163-16-16s7.163-16 16-16 16 7.163 16 16c0 8.836-7.163 16-16 16z"/></svg>
