<svg xmlns="http://www.w3.org/2000/svg" viewBox="0 0 512 512"><path d="M226.735 1.636C111.259 14.518 17.472 106.202 2.285 221.396c-21.518 163.24 111.938 302.116 273.589 289.849 59.464-4.513 115.124-31.086 158.736-71.759l3.746-3.492c4.309-4.018 4.544-10.768.526-15.076l-14.555-15.607c-4.018-4.309-10.767-4.544-15.076-.526l-7.803 7.277c-48.51 45.232-115.104 65.582-182.284 54.141-95.215-16.216-168.411-97.052-175.846-193.352-9.831-127.343 92.889-233.758 219.006-230.093 116.288 3.381 207.009 102.616 207.009 218.953v15.622c0 24.934-21.486 44.932-46.921 42.46C400.246 317.637 384 297.714 384 275.442v-94.108c0-5.892-4.776-10.667-10.667-10.667H352c-4.283 0-7.921 2.56-9.618 6.203-21.465-23.413-52.19-38.203-86.382-38.203-64.698 0-117.333 52.635-117.333 117.333S191.302 373.334 256 373.334c40.755 0 76.691-20.909 97.732-52.54 15.842 26.475 45.276 43.922 78.78 41.677 45.303-3.035 79.488-42.746 79.488-88.15V256C512 105.202 380.931-15.566 226.735 1.636zM256 330.667c-41.167 0-74.667-33.5-74.667-74.667s33.5-74.667 74.667-74.667 74.667 33.5 74.667 74.667-33.5 74.667-74.667 74.667z"/></svg>
