<svg id="Layer_1" enable-background="new 0 0 512.041 512.041" height="512" viewBox="0 0 512.041 512.041" width="512" xmlns="http://www.w3.org/2000/svg"><path d="m143.187 262.39c4.418 0 8-3.582 8-8s-3.582-8-8-8h-3.334c-4.418 0-8 3.582-8 8s3.582 8 8 8z"/><path d="m488.313 170.881c38.006-72.299-8.318-159.883-88.623-169.924-94.019-11.76-160.453 87.187-117.884 169.213h-31.692c14.958-72.797-40.942-140.065-114.094-140.065-64.238 0-116.5 52.262-116.5 116.5 0 4.418 3.582 8 8 8s8-3.582 8-8c0-55.416 45.084-100.5 100.5-100.5 64.539 0 112.97 60.502 97.707 124.064h-18.613c18.67-63.22-42.388-123.567-106.554-100.896-42.245 14.927-63.677 59.922-51.625 100.897h-27.415c-13.233 0-24 10.767-24 24v44.22c0 13.233 10.767 24 24 24h13.708v225.651c0 13.234 10.767 24 24 24h378.885c13.233 0 24-10.766 24-24v-198.936c0-4.418-3.582-8-8-8s-8 3.582-8 8v198.936c0 4.411-3.589 8-8 8h-378.885c-4.411 0-8-3.589-8-8v-225.651h43.959c4.418 0 8-3.582 8-8s-3.582-8-8-8h-73.667c-4.411 0-8-3.589-8-8v-44.22c0-4.411 3.589-8 8-8h453c4.411 0 8 3.589 8 8v44.22c0 4.411-3.589 8-8 8h-309c-4.418 0-8 3.582-8 8s3.582 8 8 8h309c13.233 0 24-10.767 24-24v-44.22c0-11.236-7.763-20.69-18.207-23.289zm-90.607-154.048c73.244 9.159 111.568 91.69 72.556 153.337h-124.019c-25.442-18.933-33.953-52.938-20.15-81.825 15.825-33.117 55.434-47.116 88.556-31.288 33.119 15.826 47.115 55.433 31.289 88.556-1.905 3.986-.218 8.763 3.769 10.667 3.99 1.906 8.764.217 10.667-3.769 19.638-41.096 2.276-90.251-38.826-109.891-41.095-19.638-90.251-2.275-109.89 38.826-13.963 29.219-9.531 63.914 11.4 88.724h-22.818c-44.561-70.57 12.256-163.987 97.466-153.337zm-233.058 70.224c31.091 14.857 45.431 51.321 33.576 83.113h-124.416c-20.7-55.473 36.798-108.941 90.84-83.113z"/><path d="m165.652 415.821c4.418 0 8-3.582 8-8v-67.614c0-4.418-3.582-8-8-8s-8 3.582-8 8v67.614c0 4.419 3.582 8 8 8z"/><path d="m259.407 408.61c3.479-2.723 4.094-7.75 1.371-11.23-2.723-3.479-7.751-4.094-11.23-1.371-11.677 9.137-29.086.867-29.086-14.193v-15.603c0-15.279 17.851-23.474 29.455-13.897 3.408 2.811 8.451 2.329 11.262-1.079 2.813-3.408 2.33-8.45-1.078-11.262-21.975-18.132-55.639-2.572-55.639 26.238v15.603c0 28.439 32.871 44.065 54.945 26.794z"/><path d="m321.684 415.821c18.751 0 34.006-15.255 34.006-34.005v-15.603c0-18.75-15.255-34.005-34.006-34.005-18.75 0-34.005 15.255-34.005 34.005v15.603c0 18.75 15.255 34.005 34.005 34.005zm-18.005-49.608c0-9.928 8.077-18.005 18.005-18.005 9.929 0 18.006 8.077 18.006 18.005v15.603c0 9.928-8.077 18.005-18.006 18.005-9.928 0-18.005-8.077-18.005-18.005z"/><path d="m105.642 353.766v40.498c0 34.83 28.336 63.167 63.166 63.167h175.726c34.83 0 63.167-28.336 63.167-63.167v-40.498c0-34.831-28.337-63.167-63.167-63.167h-175.726c-34.83 0-63.166 28.336-63.166 63.167zm63.166-47.167h175.726c26.008 0 47.167 21.159 47.167 47.167v40.498c0 26.008-21.159 47.167-47.167 47.167h-175.726c-26.008 0-47.166-21.159-47.166-47.167v-40.498c0-26.008 21.158-47.167 47.166-47.167z"/><path d="m404.245 79.302v-6.177c0-4.418-3.582-8-8-8s-8 3.582-8 8v4.471h-6.449v-4.471c0-4.418-3.582-8-8-8s-8 3.582-8 8v4.471h-6.965c-4.418 0-8 3.582-8 8s3.582 8 8 8h1.977v48.02h-1.977c-4.418 0-8 3.582-8 8s3.582 8 8 8h6.965v4.471c0 4.418 3.582 8 8 8s8-3.582 8-8v-4.471h6.449v4.471c0 4.418 3.582 8 8 8s8-3.582 8-8v-6.177c15.473-6.208 20.008-26.033 8.565-38.303 11.45-12.281 6.896-32.101-8.565-38.305zm-8.832 62.313h-18.605v-15.594h18.605c4.299 0 7.797 3.498 7.797 7.797s-3.498 7.797-7.797 7.797zm0-48.019c4.299 0 7.797 3.498 7.797 7.797s-3.498 7.797-7.797 7.797h-18.605v-15.594z"/></svg>