<svg height="512" viewBox="0 0 64 64" width="512" xmlns="http://www.w3.org/2000/svg"><path d="m59 2h-54a3 3 0 0 0 -3 3v42a3 3 0 0 0 3 3h18.132l-2.667 4h-6.465a1 1 0 0 0 -1 1v6a1 1 0 0 0 1 1h36a1 1 0 0 0 1-1v-6a1 1 0 0 0 -1-1h-6.465l-2.667-4h18.132a3 3 0 0 0 3-3v-42a3 3 0 0 0 -3-3zm-54 2h54a1 1 0 0 1 1 1v1h-56v-1a1 1 0 0 1 1-1zm55 36h-2v-14a1 1 0 0 0 -1-1h-4.586l-5.707-5.707a1 1 0 0 0 -1.414 0l-10.293 10.293-4.293-4.293a1 1 0 0 0 -1.414 0l-6.293 6.293-3.293-3.293a1 1 0 0 0 -1.414 0l-5.707 5.707h-1.586a1 1 0 0 0 -1 1v5h-2v-10h3v-2h-3v-3h7v-2h-7v-3h11v-2h-11v-3h17v-2h-17v-3h-2v30h-2v-32h56zm-4 0h-44v-4h1a1 1 0 0 0 .707-.293l5.293-5.293 3.293 3.293a1 1 0 0 0 1.414 0l6.293-6.293 4.293 4.293a1 1 0 0 0 1.414 0l10.293-10.293 5.293 5.293a1 1 0 0 0 .707.293h4zm-7 20h-34v-4h34zm-7.868-6h-18.264l2.667-4h12.93zm17.868-6h-54a1 1 0 0 1 -1-1v-5h56v5a1 1 0 0 1 -1 1z"/><path d="m35 45a3 3 0 1 0 -3 3 3 3 0 0 0 3-3zm-3 1a1 1 0 1 1 1-1 1 1 0 0 1 -1 1z"/><path d="m56 44h2v2h-2z"/><path d="m52 44h2v2h-2z"/><path d="m32 24h2v-2h2v2h2v-2a2.987 2.987 0 0 0 2.22-5 2.987 2.987 0 0 0 -2.22-5v-2h-2v2h-2v-2h-2v2h-2v2h2v6h-2v2h2zm7-9a1 1 0 0 1 -1 1h-4v-2h4a1 1 0 0 1 1 1zm-5 3h4a1 1 0 0 1 0 2h-4z"/><path d="m44 13h14v2h-14z"/><path d="m50 18h8v2h-8z"/><path d="m22 19h2v2h-2z"/><path d="m25 22h2v2h-2z"/></svg>